<?xml version="1.0" standalone="no"?><!DOCTYPE svg PUBLIC "-//W3C//DTD SVG 1.1//EN" "http://www.w3.org/Graphics/SVG/1.1/DTD/svg11.dtd"><svg class="icon" width="200px" height="200.00px" viewBox="0 0 1024 1024" version="1.1" xmlns="http://www.w3.org/2000/svg"><path d="M668.68 833.09H349.4c-28.38 0-52-23.75-54.21-54.54l-41.83-443.81h511.35l-41.83 443.81c-2.21 30.79-25.82 54.54-54.2 54.54z" fill="#FF8B29" /><path d="M340.19 778.63l-41.83-443.82h-45l41.83 443.82c2.22 30.78 25.83 54.54 54.21 54.54h45c-28.4 0-51.99-23.76-54.21-54.54z" fill="#F27314" /><path d="M736.26 644.09H282.75a10.9 10.9 0 0 1-10.84-9.89L255 450.33a10.89 10.89 0 0 1 10.84-11.89h486.42a10.9 10.9 0 0 1 10.85 11.83l-16 183.87a10.89 10.89 0 0 1-10.85 9.95z" fill="#FFE3C5" /><path d="M452.205705 602.415467a56.3 82.1 45 1 0 116.106933-116.106934 56.3 82.1 45 1 0-116.106933 116.106934Z" fill="#FCAE3F" /><path d="M346.41 634.2l-16.93-183.87a10.89 10.89 0 0 1 10.84-11.89h-75a10.89 10.89 0 0 0-10.84 11.89l16.93 183.87a10.9 10.9 0 0 0 10.85 9.89h75a10.9 10.9 0 0 1-10.85-9.89z" fill="#FFD0A1" /><path d="M764.93 304.14H253.15l10.22-68.38a27.7 27.7 0 0 1 27.4-23.61H727.3a27.71 27.71 0 0 1 27.41 23.61z" fill="#FFD44A" /><path d="M331.93 212.16h-42a27.7 27.7 0 0 0-27.4 23.61l-10.22 68.38h42l10.22-68.38a27.7 27.7 0 0 1 27.4-23.61z" fill="#FFC82C" /><path d="M772.69 357.07h-527.3a20.31 20.31 0 0 1-20.13-23l4.06-30.24a20.32 20.32 0 0 1 20.13-17.61h519.17a20.31 20.31 0 0 1 20.13 17.61l4.07 30.24a20.31 20.31 0 0 1-20.13 23z" fill="#FEE66D" /><path d="M270 334.2l4.06-30.2a20.32 20.32 0 0 1 20.13-17.61h-45A20.32 20.32 0 0 0 229.06 304L225 334.2a20.31 20.31 0 0 0 20.13 23h45a20.31 20.31 0 0 1-20.13-23z" fill="#FFDB45" /><path d="M568.7 487.07a39.54 39.54 0 0 0-6.12-5c19.59 22.56 11 64.72-20.13 95.83-29.32 29.32-68.45 38.64-91.75 23.21q0.9 1.05 1.89 2c22 22 65.8 13.81 97.86-18.25s40.23-75.8 18.25-97.79z" fill="#EF9529" /></svg>