<?xml version="1.0" standalone="no"?><!DOCTYPE svg PUBLIC "-//W3C//DTD SVG 1.1//EN" "http://www.w3.org/Graphics/SVG/1.1/DTD/svg11.dtd"><svg class="icon" width="200px" height="200.00px" viewBox="0 0 1024 1024" version="1.1" xmlns="http://www.w3.org/2000/svg"><path d="M358.64 771.79m20.91 0l261.58 0q20.91 0 20.91 20.91l0 46.94q0 20.91-20.91 20.91l-261.58 0q-20.91 0-20.91-20.91l0-46.94q0-20.91 20.91-20.91Z" fill="#F24A46" /><path d="M389 839.13V792.2a20.92 20.92 0 0 1 20.91-20.92h-31A20.92 20.92 0 0 0 358 792.2v46.93a20.92 20.92 0 0 0 20.91 20.92h31A20.92 20.92 0 0 1 389 839.13z" fill="#EA2D2D" /><path d="M753.605962 291.930334m12.148094 12.148095l-0.007071-0.007071q12.148095 12.148095 0 24.296189l-263.015438 263.015438q-12.148095 12.148095-24.296189 0l0.007071 0.007071q-12.148095-12.148095 0-24.296189l263.015438-263.015438q12.148095-12.148095 24.296189 0Z" fill="#DD811D" /><path d="M598.84 470.98m-90.78 0a90.78 90.78 0 1 0 181.56 0 90.78 90.78 0 1 0-181.56 0Z" fill="#FCAE3F" /><path d="M639 511.59a90.81 90.81 0 0 1-115.24 10.9A90.78 90.78 0 1 0 649.9 396.35 90.81 90.81 0 0 1 639 511.59z" fill="#EF9529" /><path d="M691.49 378.33m-90.78 0a90.78 90.78 0 1 0 181.56 0 90.78 90.78 0 1 0-181.56 0Z" fill="#FC6257" /><path d="M731.64 419a90.8 90.8 0 0 1-115.24 10.85 90.78 90.78 0 1 0 126.13-126.13A90.8 90.8 0 0 1 731.64 419z" fill="#F94541" /><path d="M784.14 285.69m-90.78 0a90.78 90.78 0 1 0 181.56 0 90.78 90.78 0 1 0-181.56 0Z" fill="#FCAE3F" /><path d="M824.27 326.13A90.81 90.81 0 0 1 709 337a90.79 90.79 0 1 0 126.16-126.11 90.81 90.81 0 0 1-10.89 115.24z" fill="#EF9529" /><path d="M915.307046 130.233421m12.148095 12.148095l-0.007071-0.007071q12.148095 12.148095 0 24.296189l-96.456436 96.456436q-12.148095 12.148095-24.296189 0l0.007071 0.007071q-12.148095-12.148095 0-24.296189l96.456436-96.456436q12.148095-12.148095 24.296189 0Z" fill="#DD811D" /><path d="M430.386837 526.04479m-12.148094 12.148095l0.007071-0.007071q-12.148095 12.148095-24.296189 0l-263.015439-263.015439q-12.148095-12.148095 0-24.296189l-0.007071 0.007071q12.148095-12.148095 24.296189 0l263.015439 263.015439q12.148095 12.148095 0 24.296189Z" fill="#DD811D" /><path d="M251.34 371.28m-90.78 0a90.78 90.78 0 1 0 181.56 0 90.78 90.78 0 1 0-181.56 0Z" fill="#FCAE3F" /><path d="M210.73 411.45a90.81 90.81 0 0 1-10.89-115.24A90.79 90.79 0 1 0 326 422.34a90.81 90.81 0 0 1-115.27-10.89z" fill="#EF9529" /><path d="M343.99 463.93m-90.78 0a90.78 90.78 0 1 0 181.56 0 90.78 90.78 0 1 0-181.56 0Z" fill="#FC6257" /><path d="M303.36 504.08a90.81 90.81 0 0 1-10.89-115.24 90.79 90.79 0 1 0 115.24 139.28A90.38 90.38 0 0 0 418.6 515a90.8 90.8 0 0 1-115.24-10.92z" fill="#F94541" /><path d="M436.64 556.58m-90.78 0a90.78 90.78 0 1 0 181.56 0 90.78 90.78 0 1 0-181.56 0Z" fill="#FCAE3F" /><path d="M396.2 596.71a90.82 90.82 0 0 1-10.9-115.24A90.78 90.78 0 1 0 511.44 607.6a90.81 90.81 0 0 1-115.24-10.89z" fill="#EF9529" /><path d="M592.089629 687.741339m-12.148095 12.148095l0.007071-0.007071q-12.148095 12.148095-24.296189 0l-96.456436-96.456436q-12.148095-12.148095 0-24.296189l-0.007071 0.007071q12.148095-12.148095 24.296189 0l96.456436 96.456436q12.148095 12.148095 0 24.296189Z" fill="#DD811D" /><path d="M644.4 818.25H371.87c-140.33-2.1-252.41-117.81-252.38-258.16v-96.9A43.16 43.16 0 0 1 162.67 420h694.86a43.17 43.17 0 0 1 43.17 43.16v96.9c0 140.35-112.05 256.06-252.38 258.16-1.32 0.02-2.61 0.03-3.92 0.03z" fill="#FC6257" /><path d="M153.94 559.91L154 463a43.16 43.16 0 0 1 43.16-43.16h-34A43.16 43.16 0 0 0 120 463v96.91C119.91 700.26 232 816 372.32 818.06h37.94-3.94C266 816 153.91 700.26 153.94 559.91z" fill="#F94541" /><path d="M662.45 754.46a15 15 0 0 1 0-30c55.52 0 98.18-20.85 126.78-62 21.91-31.49 27.23-63.79 27.28-64.11a15 15 0 0 1 29.65 4.6c-0.24 1.55-6.15 38.49-31.57 75.57-23.73 34.67-69.39 75.94-152.14 75.94z" fill="#FFFFFF" /><path d="M838.5 549.5m-15.5 0a15.5 15.5 0 1 0 31 0 15.5 15.5 0 1 0-31 0Z" fill="#FFFFFF" /></svg>