<?xml version="1.0" standalone="no"?><!DOCTYPE svg PUBLIC "-//W3C//DTD SVG 1.1//EN" "http://www.w3.org/Graphics/SVG/1.1/DTD/svg11.dtd"><svg class="icon" width="200px" height="200.00px" viewBox="0 0 1024 1024" version="1.1" xmlns="http://www.w3.org/2000/svg"><path d="M857.57 439.46s-123.58 54-304.26 98.7c-167 41.28-315.21 54.44-315.21 54.44-47.65 4-74.3-13.41-83.43-50.36C129.85 319.77 478 233.69 478 233.69c208-51.42 383-4.13 429.89 122.33 9.18 36.98-9.73 64.46-50.32 83.44z" fill="#F4982A" /><path d="M281.32 581.8c-47.65 4-74.3-13.41-83.44-50.36-21.54-193.14 238-283.48 306.86-304q-13.41 2.81-27 6.16s-348.22 86.13-323.4 308.6c9.13 36.95 35.78 54.32 83.43 50.36 0 0 148.22-13.16 315.21-54.44q11.43-2.83 22.53-5.7c-158.2 37.3-294.19 49.38-294.19 49.38z" fill="#EF8C20" /><path d="M858.38 444.58s-123.59 54-304.26 98.7c-167 41.28-315.21 54.44-315.21 54.44-47.65 4-74.3-13.41-83.44-50.36 103.7 21.92 387-51.07 387-51.07 208-51.43 262.67-76.74 366.24-135.15 9.16 36.95-9.71 64.47-50.33 83.44z" fill="#EF8D22" /><path d="M305.65 305.85s3.87 46.64 35 81.64c0 0 10.14 13.9 27 6.51 0 0 7-5 9.17-13.53a17.74 17.74 0 0 0-2.77-14.4c-6.47-9.27-23.86-37.56-30.22-81.34-0.03 0-27.83-10.67-38.18 21.12zM457.43 240.27s-5.76 46.45 17.5 87.06c0 0 7.08 15.69 25.12 11.9a17.54 17.54 0 0 0 10.17-8.75 16.7 16.7 0 0 0 0-14.11c-4.58-10.23-16.4-41.9-11.08-87.06 0.02 0-25.84-14.8-41.71 10.96zM620.1 213.76s-13 44.95 3.5 88.73c0 0 4.5 16.61 22.92 15.73a17.57 17.57 0 0 0 10.83-6.22 15.79 15.79 0 0 0 2.26-15.17c-3.84-10.62-11.81-40.6 0.27-83.19 0-0.02-18.01-17.2-39.78 0.12z" fill="#FFC47D" /><path d="M207 551.2c-17.73-0.09-38.42-1.13-51.42-3.88 9.14 36.95 35.79 54.32 83.44 50.36 0 0 14.17-1 30.76-2.93-33.26-1.52-53.61-16.32-62.78-43.55z" fill="#DB7F2C" /><path d="M775 823.15s-133.78-17.61-311.54-72.75c-164.29-51-298-116.29-298-116.29-42.84-21.24-56.68-49.89-45.41-86.24 93.74-203.28 436.31-97 436.31-97 204.65 63.48 330 194.4 304.8 326.91-11.25 36.32-41.66 50.1-86.16 45.37z" fill="#FCAE3F" /><path d="M208.06 647.19C165.22 626 151.38 597.31 162.65 561 244 384.47 512.94 441.29 582.44 459.34q-12.93-4.53-26.33-8.7s-342.57-106.26-436.3 97c-11.28 36.35 2.56 65 45.4 86.23 0 0 133.7 65.33 298 116.29q11.24 3.49 22.23 6.77c-154.72-49.8-277.38-109.74-277.38-109.74z" fill="#F79F34" /><path d="M773 828s-133.73-17.66-311.5-72.8c-164.29-51-298-116.29-298-116.29-42.84-21.24-56.68-49.89-45.4-86.24C195.57 625 475.84 709 475.84 709c204.66 63.45 264.53 70 383.39 73.55C848 818.9 817.54 832.68 773 828z" fill="#EF9529" /><path d="M371.5 423.52s-20.8 41.94-12.27 88c0 0 1.49 17.14 19.77 19.54 0 0 8.6-0.65 14.84-6.85a17.74 17.74 0 0 0 5.07-13.75c-0.75-11.28-1-44.49 16.16-85.26 0-0.04-18.31-23.56-43.57-1.68zM535.33 445.82s-28.94 36.8-30 83.59c0 0-2.05 17.08 15.35 23.17a17.58 17.58 0 0 0 13.23-2.24 16.72 16.72 0 0 0 7.31-12.08c1.36-11.12 7.61-44.34 35.51-80.25-0.01-0.01-14.5-26.01-41.4-12.19zM688.3 507.2s-34.4 31.74-42.87 77.8c0 0-4.73 16.54 11.49 25.3a17.59 17.59 0 0 0 12.5 0.26 15.77 15.77 0 0 0 9.77-11.82c2.21-11.07 10.88-40.87 43.23-71.08 0-0.02-6.54-24.04-34.12-20.46z" fill="#FFC47D" /><path d="M160.26 582.6c-15.13-9.25-32.31-20.83-42-29.9-11.28 36.36 2.56 65 45.4 86.24 0 0 12.68 6.43 27.85 13.38-27.72-18.49-37.51-41.68-31.25-69.72z" fill="#DB7F2C" /></svg>