<?xml version="1.0" standalone="no"?><!DOCTYPE svg PUBLIC "-//W3C//DTD SVG 1.1//EN" "http://www.w3.org/Graphics/SVG/1.1/DTD/svg11.dtd"><svg class="icon" width="200px" height="200.00px" viewBox="0 0 1024 1024" version="1.1" xmlns="http://www.w3.org/2000/svg"><path d="M628.357 138.995l73.463 20.65-67.133 238.834-73.463-20.65z" fill="#FE972B" /><path d="M662.12 877.07H362A51.11 51.11 0 0 1 311 830l-39.34-523.48h480.75L713.09 830a51.12 51.12 0 0 1-50.97 47.07z" fill="#FF8B29" /><path d="M610.4 640.38H413.68a25.6 25.6 0 0 1-25.53-23.61l-7.24-92.31a25.6 25.6 0 0 1 25.52-27.61h211.21a25.61 25.61 0 0 1 25.53 27.61l-7.24 92.31a25.62 25.62 0 0 1-25.53 23.61z" fill="#FFFFFF" /><path d="M360.81 829.85l-39.33-523.43h-50l39.33 523.43a51.11 51.11 0 0 0 51 47.12h50a51.11 51.11 0 0 1-51-47.12z" fill="#F27314" /><path d="M227.01 252.19m43.5 0l483.06 0q43.5 0 43.5 43.5l0 8.93q0 43.5-43.5 43.5l-483.06 0q-43.5 0-43.5-43.5l0-8.93q0-43.5 43.5-43.5Z" fill="#FEE66D" /><path d="M267.43 304.57v-8.93a43.51 43.51 0 0 1 43.5-43.5H270.6a43.51 43.51 0 0 0-43.5 43.5v8.93a43.5 43.5 0 0 0 43.5 43.5h40.33a43.5 43.5 0 0 1-43.5-43.5z" fill="#FFDB45" /></svg>