<?xml version="1.0" standalone="no"?><!DOCTYPE svg PUBLIC "-//W3C//DTD SVG 1.1//EN" "http://www.w3.org/Graphics/SVG/1.1/DTD/svg11.dtd"><svg class="icon" width="200px" height="200.00px" viewBox="0 0 1024 1024" version="1.1" xmlns="http://www.w3.org/2000/svg"><path d="M292 271.77h388.11a48.49 48.49 0 0 1 48.49 48.49v482.17A83.57 83.57 0 0 1 645 886H327.09a83.57 83.57 0 0 1-83.57-83.57V320.25A48.49 48.49 0 0 1 292 271.77z" fill="#FCAE3F" /><path d="M283.76 802.42V320.24a48.47 48.47 0 0 1 48.48-48.48h-40a48.47 48.47 0 0 0-48.48 48.48v482.18A83.56 83.56 0 0 0 327.33 886h40a83.56 83.56 0 0 1-83.57-83.58z" fill="#EF9529" /><path d="M861.25 594.6H865v3.75h-3.75z" fill="#FFE3C5" /><path d="M306.79 415.59m40.42 0l0.01 0q40.42 0 40.42 40.42l0 306.82q0 40.42-40.42 40.42l-0.01 0q-40.42 0-40.42-40.42l0-306.82q0-40.42 40.42-40.42Z" fill="#EF9529" /><path d="M445.19 415.88m40.42 0l0.01 0q40.42 0 40.42 40.42l0 306.82q0 40.42-40.42 40.42l-0.01 0q-40.42 0-40.42-40.42l0-306.82q0-40.42 40.42-40.42Z" fill="#EF9529" /><path d="M583.6 415.88m40.42 0l0.01 0q40.42 0 40.42 40.42l0 306.82q0 40.42-40.42 40.42l-0.01 0q-40.42 0-40.42-40.42l0-306.82q0-40.42 40.42-40.42Z" fill="#EF9529" /><path d="M769.29 781.89h-40.15v-56h40.15a56.53 56.53 0 0 0 56.47-56.47V525.49a56.62 56.62 0 0 0-56.55-56.55h-40.07v-56h40.07a112.68 112.68 0 0 1 112.55 112.55v143.93a112.6 112.6 0 0 1-112.47 112.47z" fill="#EF8F30" /><path d="M327 762.82V456a40.46 40.46 0 0 1 30.42-39.18 40.58 40.58 0 0 0-10-1.24A40.42 40.42 0 0 0 307 456v306.82a40.43 40.43 0 0 0 40.42 40.43 40.59 40.59 0 0 0 10-1.25A40.44 40.44 0 0 1 327 762.82zM465 762.82V456a40.46 40.46 0 0 1 30.42-39.18 40.58 40.58 0 0 0-10-1.24A40.42 40.42 0 0 0 445 456v306.82a40.43 40.43 0 0 0 40.42 40.43 40.59 40.59 0 0 0 10-1.25A40.44 40.44 0 0 1 465 762.82zM600 762.82V456a40.46 40.46 0 0 1 30.42-39.18 40.58 40.58 0 0 0-10-1.24A40.42 40.42 0 0 0 580 456v306.82a40.43 40.43 0 0 0 40.42 40.43 40.59 40.59 0 0 0 10-1.25A40.44 40.44 0 0 1 600 762.82z" fill="#DD811D" /><path d="M762.86 263.24c-0.73-52.44-44.17-94.88-96.61-94.43a95.58 95.58 0 0 0-72.69 34.36 68 68 0 0 0-84-20.12 86.81 86.81 0 0 0-145.86-9 58.14 58.14 0 0 0-83.26 35.16 75.74 75.74 0 0 0 6.32 151.21H322a14.34 14.34 0 0 1 14.33 14.33v69.19a37.67 37.67 0 0 0 75.33 0v-69.21a14.33 14.33 0 0 1 14.33-14.33h14.73A14.33 14.33 0 0 1 455 374.73a27.43 27.43 0 1 0 54.86 0 14.34 14.34 0 0 1 14.33-14.33h142.88a95.8 95.8 0 0 0 95.79-97.16z" fill="#FFE3C5" /><path d="M373.137075 542.158103m-31.345628 19.374573a36.85 36.85 0 1 0 62.691257-38.749147 36.85 36.85 0 1 0-62.691257 38.749147Z" fill="#FFE3C5" /><path d="M233.46 284.42A75.74 75.74 0 0 1 302.88 209a58.22 58.22 0 0 1 44.88-41 58.82 58.82 0 0 0-11-1 58.14 58.14 0 0 0-55.86 42 75.74 75.74 0 0 0 6.32 151.21h22a75.74 75.74 0 0 1-75.76-75.79zM477.46 374.49a14.33 14.33 0 0 0-14.33-14.33h-14.74a14.13 14.13 0 0 0-3.63 0.49 14.3 14.3 0 0 1 10.7 13.84 27.43 27.43 0 0 0 38.43 25.13 27.43 27.43 0 0 1-16.43-25.13zM336.74 443.68a37.67 37.67 0 0 0 48.66 36 37.69 37.69 0 0 1-26.66-36v-69.19a14.34 14.34 0 0 0-14.33-14.33h-22a14.34 14.34 0 0 1 14.33 14.33zM309.2 360.16zM356 542.09a36.91 36.91 0 0 1 26.89-35.53 36.91 36.91 0 1 0-10 72.44 36.8 36.8 0 0 0 10-1.39A36.9 36.9 0 0 1 356 542.09z" fill="#FFD0A1" /></svg>