<?xml version="1.0" standalone="no"?><!DOCTYPE svg PUBLIC "-//W3C//DTD SVG 1.1//EN" "http://www.w3.org/Graphics/SVG/1.1/DTD/svg11.dtd"><svg class="icon" width="200px" height="200.00px" viewBox="0 0 1024 1024" version="1.1" xmlns="http://www.w3.org/2000/svg"><path d="M456.79 627.12s101.15-35.75 84.35-163.78c0 0-7.43-120.82-91.3-139.64 0 0-93.17-14.05-100.9 162.58 0 0 11.71 146.26 107.85 140.84z" fill="#8BFF88" /><path d="M512.85 689.92S351.78 528.64 518 348.36c0 0 152-179.85 275.83-144.65 0 0 167.2 56.93 18.46 350.07-0.02 0-146.93 228.99-299.44 136.14z" fill="#41DD3E" /><path d="M437.28 656.5s85.45-106.61-18.71-233.87c0 0-89.17-125.76-192.57-89.8 0 0-110.25 47.36 0 243.69 0 0 110.89 150.41 211.28 79.98z" fill="#A9FFA4" /><path d="M552.77 565.77a21.31 21.31 0 0 1-11.47-40C609.4 489.19 657 429.89 685 386.58c30.8-47.67 45.28-87.11 45.43-87.5a21.3 21.3 0 0 1 40.07 14.49c-0.64 1.75-15.9 43.58-49.07 95.14-30.77 47.86-83.51 113.52-160 154.57a21.25 21.25 0 0 1-8.66 2.49z" fill="#8DFF8B" /><path d="M388.72 576.09a11.91 11.91 0 0 0 6.41-22.38c-38.06-20.42-64.68-53.56-80.32-77.76-17.21-26.65-25.31-48.69-25.39-48.95a11.91 11.91 0 0 0-22.39 8.1c0.35 1 8.89 24.35 27.42 53.17 17.2 26.75 46.67 63.44 89.42 86.39a11.92 11.92 0 0 0 4.85 1.43z" fill="#59E555" /><path d="M793.64 203.79c-1.21-0.35-2.42-0.66-3.64-1 40.17 32.84 97.51 121.35-9.9 333 0 0-129.51 201.86-271.56 149.68 2.6 2.93 4.13 4.46 4.13 4.46C665.18 782.85 812.1 553.85 812.1 553.85c148.74-293.14-18.46-350.06-18.46-350.06z" fill="#29C924" /><path d="M257.2 565.75c-89.47-159.31-33.73-220.53-9.53-237.95a116.86 116.86 0 0 0-21.47 5.27s-110.25 47.36 0 243.68c0 0 103.5 140.38 201 86.4-87.2 14.85-170-97.4-170-97.4z" fill="#7EF26D" /><path d="M599.43 824.5H422.85a308.48 308.48 0 0 1-303.74-254.64 52.31 52.31 0 0 1 51.51-61.45h681.05a52.31 52.31 0 0 1 51.51 61.45A308.49 308.49 0 0 1 599.43 824.5z" fill="#FCAE3F" /><path d="M171.63 570.3a52.31 52.31 0 0 1 51.51-61.44h-53a52.31 52.31 0 0 0-51.51 61.44A308.49 308.49 0 0 0 422.38 825h53a308.49 308.49 0 0 1-303.75-254.7z" fill="#EF9529" /></svg>