<?xml version="1.0" standalone="no"?><!DOCTYPE svg PUBLIC "-//W3C//DTD SVG 1.1//EN" "http://www.w3.org/Graphics/SVG/1.1/DTD/svg11.dtd"><svg class="icon" width="200px" height="200.00px" viewBox="0 0 1024 1024" version="1.1" xmlns="http://www.w3.org/2000/svg"><path d="M592.75 313.02m-138.02 0a138.02 138.02 0 1 0 276.04 0 138.02 138.02 0 1 0-276.04 0Z" fill="#FFA4A4" /><path d="M488.42 313a138 138 0 0 1 121.17-137 138 138 0 1 0-16.84 275 139.72 139.72 0 0 0 16.84-1 138 138 0 0 1-121.17-137z" fill="#FF807D" /><path d="M641.18 802.56c16.43-51.13 68.59-155.43 220-150.59a23.59 23.59 0 0 1 21.24 31.95C862.19 737.34 804 843.39 662 833.3a23.6 23.6 0 0 1-20.82-30.74z" fill="#A9FFA4" /><path d="M866 651.9a23.54 23.54 0 0 1-1.12 12.78c-20.19 53.42-78.4 159.47-220.4 149.38a23 23 0 0 1-4.12-0.66 23.63 23.63 0 0 0 21.51 19.14c142 10.08 200.21-96 220.39-149.38A23.63 23.63 0 0 0 866 651.9z" fill="#7EF26D" /><path d="M800.56 328.8v211.81c0 105.1-85.2 190.3-190.3 190.3-105.1 0-190.3-85.2-190.3-190.3v-0.52s0.26-242.25 311.91-273.37a62.44 62.44 0 0 1 68.69 62.08z" fill="#FF807D" /><path d="M289.45 290.64v284.67c0 141.25 114.51 255.76 255.76 255.76S801 716.56 801 575.31v-0.71s-0.39-325.6-419.24-367.39a83.9 83.9 0 0 0-92.31 83.43z" fill="#FC6257" /><path d="M346.05 575V290.34a83.87 83.87 0 0 1 60.55-80.55q-12.14-1.6-24.75-2.88a83.9 83.9 0 0 0-92.31 83.43V575c0 141.25 114.5 255.75 255.75 255.75a258.41 258.41 0 0 0 28.25-1.56C445.6 815.14 346.05 706.71 346.05 575z" fill="#F94541" /><path d="M194.05 469.18c102.7 3.36 322 44.5 392.61 325.48 7.54 30-16.81 58.44-47.62 55.88-108.88-9.06-334.56-60.42-390.62-326.95a45.16 45.16 0 0 1 45.63-54.41z" fill="#41DD3E" /><path d="M561.66 817.15c-108.88-9.06-334.55-60.42-390.61-326.94a45.12 45.12 0 0 1-0.61-15 45.16 45.16 0 0 0-22.22 48.74C204.29 790.42 430 841.78 538.84 850.84a45.27 45.27 0 0 0 48.65-39.27 44.8 44.8 0 0 1-25.83 5.58z" fill="#29C924" /></svg>