<?xml version="1.0" encoding="UTF-8"?>
<svg width="48px" height="40px" viewBox="0 0 48 40" version="1.1" xmlns="http://www.w3.org/2000/svg" xmlns:xlink="http://www.w3.org/1999/xlink">
    <title>icon/logo</title>
    <defs>
        <polygon id="path-1" points="3.49472151e-05 6.98944303e-05 48.0000349 6.98944303e-05 48.0000349 40.0000699 3.49472151e-05 40.0000699"></polygon>
    </defs>
    <g id="icon/logo" stroke="none" stroke-width="1" fill="none" fill-rule="evenodd">
        <g id="编组">
            <mask id="mask-2" fill="white">
                <use xlink:href="#path-1"></use>
            </mask>
            <g id="Clip-2"></g>
            <path d="M39.0634642,28.8357842 C36.1551339,26.5036413 34.4015292,23.4822128 34.4015292,20.185427 C34.4015292,16.8893556 36.1551339,13.8714985 39.0634642,11.5389985 C41.9717944,13.8714985 43.7253992,16.8893556 43.7253992,20.185427 C43.7253992,23.4822128 41.9717944,26.5036413 39.0634642,28.8357842 M26.6770615,33.4568556 L26.6770615,6.91435561 C30.0659296,7.22864132 33.18584,8.12506989 35.799751,9.45328418 C32.2573977,12.3500699 30.1233073,16.0925699 30.1233073,20.185427 C30.1233073,24.2786413 32.2573977,28.0247128 35.7965236,30.9214985 C33.1822538,32.2464985 30.0659296,33.142927 26.6770615,33.4568556 M11.984794,30.8072128 C15.4417981,27.9250699 17.5181522,24.2250699 17.5181522,20.185427 C17.5181522,16.1464985 15.438212,12.4461413 11.9808493,9.56792704 C14.7245773,8.13185561 18.0417234,7.17828418 21.6565161,6.88578418 L21.6565161,33.4857842 C18.0417234,33.192927 14.7281634,32.2389985 11.984794,30.8072128 M8.76088665,28.6893556 C5.96013954,26.3786413 4.27825684,23.4139985 4.27825684,20.185427 C4.27825684,16.9572128 5.96013954,13.9964985 8.76088665,11.6822128 C11.5616338,13.9964985 13.2435165,16.9572128 13.2435165,20.185427 C13.2435165,23.4139985 11.5616338,26.3786413 8.76088665,28.6893556 M42.3232326,9.45328418 C41.3406401,8.64649847 40.2468784,7.90685561 39.0634642,7.24649847 C35.5992878,5.30721275 31.3389965,4.02471275 26.6770615,3.66756989 L26.6770615,2.50006989 C26.6770615,1.80685561 26.3973454,1.18578418 25.9419102,0.732212752 C25.486475,0.278641323 24.8621343,6.98944303e-05 24.1667888,6.98944303e-05 C22.7789666,6.98944303e-05 21.6565161,1.11792704 21.6565161,2.50006989 L21.6565161,3.64292704 C16.7865871,3.97149847 12.3394597,5.30721275 8.76088665,7.34649847 C7.58787208,8.01435561 6.50881343,8.75685561 5.53697929,9.56792704 C2.07997518,12.4461413 3.49472151e-05,16.1464985 3.49472151e-05,20.185427 C3.49472151e-05,24.2250699 2.07997518,27.9286413 5.53697929,30.8072128 C6.50881343,31.617927 7.58787208,32.3607842 8.76088665,33.0286413 C12.3394597,35.067927 16.7865871,36.4032842 21.6565161,36.7318556 L21.6565161,37.5000699 C21.6565161,38.8822128 22.7789666,40.0000699 24.1667888,40.0000699 C25.554611,40.0000699 26.6770615,38.8822128 26.6770615,37.5000699 L26.6770615,36.7072128 C31.3389965,36.3500699 35.5992878,35.067927 39.0634642,33.1286413 C40.2504645,32.467927 41.3442262,31.7250699 42.3268187,30.9214985 C45.8663032,28.0247128 48.0000349,24.2786413 48.0000349,20.185427 C48.0000349,16.0925699 45.8663032,12.3500699 42.3232326,9.45328418" id="Fill-1" fill="#1E86FF" mask="url(#mask-2)"></path>
        </g>
    </g>
</svg>